<svg width="92" height="17" viewBox="0 0 92 17" fill="none" xmlns="http://www.w3.org/2000/svg">
<g clip-path="url(#clip0_315_114)">
<path d="M26.1961 2.51168C24.7907 0.479387 22.3814 0.0820779 20.7526 0.0459589C19.3195 0.0146558 13.1006 0.00743201 9.47908 0.00502408C2.34655 0.000208211 6.42228 0.00261614 0 0.00261614V3.27259C7.62693 3.27259 16.6794 3.25573 20.6422 3.31352C21.3499 3.32315 22.0501 3.39298 22.6072 3.86494C23.1267 4.30559 23.3074 5.00148 23.0765 5.60347C22.7026 6.57868 21.6686 6.82188 20.6422 6.83633C19.0711 6.86041 14.7569 6.86763 11.5345 6.87245C3.63653 6.88208 7.05723 6.87726 0 6.87726V10.1376C7.62191 10.1376 16.6944 10.1232 20.6422 10.1785C21.8744 10.1954 23.1744 10.6071 23.1744 11.9243C23.1744 13.2414 21.8744 13.6724 20.6422 13.6893C16.7019 13.7447 7.62693 13.7302 0 13.7302V16.9954C7.64952 16.9954 17.6606 17.0219 20.7501 16.9521C22.3814 16.9159 24.7907 16.5186 26.1936 14.4863C27.5112 12.5792 27.1899 10.0919 25.4582 8.4978C27.1924 6.90375 27.5137 4.42117 26.1961 2.51168Z" fill="white"/>
<path d="M88.4562 1.96728C86.1272 0.366001 83.6 0.137247 81.5521 0.0914966C79.5318 0.0457459 76.4875 0.0264825 73.7947 0.0144428C67.2268 -0.00963651 71.1771 -4.7849e-06 64.9204 -4.7849e-06V3.2796C71.5786 3.2796 76.2466 3.22662 81.3865 3.36628C82.8973 3.40722 84.516 3.55892 85.9742 4.53172C87.3545 5.45155 88.1751 6.91798 88.1751 8.49999C88.1751 10.082 87.3771 11.5508 85.9967 12.4707C84.5386 13.4411 82.9199 13.5952 81.409 13.6361C76.2692 13.7758 71.6012 13.7228 64.943 13.7228L64.9204 16.9976C71.6162 16.9976 76.4298 17.0217 81.5521 16.9085C83.6025 16.8627 86.1298 16.6364 88.4562 15.0327C90.6648 13.5133 92.0024 11.1246 92.0024 8.49999C91.9999 5.87535 90.6648 3.48668 88.4562 1.96728Z" fill="white"/>
<path d="M37.4018 7.34177C35.6174 7.30806 35.0502 6.74942 35.0376 5.04461C35.0251 3.46982 35.0326 1.60126 35.0326 0.00239563H31.1C31.1 1.61812 31.0673 4.89291 31.1326 6.47492C31.2606 9.54985 32.3121 10.5058 35.5873 10.6142C37.856 10.6888 39.6605 10.6623 42.7976 10.6599V7.36826C40.2854 7.36826 39.2614 7.37308 37.4018 7.34177Z" fill="white"/>
<path d="M56.8943 5.1024C56.8817 6.76146 56.3196 7.30565 54.5302 7.33936C53.6769 7.35622 51.4357 7.36344 49.5911 7.36585V7.36826C49.5861 7.36826 49.5786 7.36826 49.5735 7.36826C47.6888 7.36826 45.681 7.36585 44.5015 7.36585V16.9952H49.1243V10.6599C49.2648 10.6599 49.4179 10.6599 49.5735 10.6599C49.5786 10.6599 49.5861 10.6599 49.5911 10.6599V10.6647C51.9954 10.6623 55.002 10.6551 56.1364 10.6214C59.6098 10.5202 60.6688 9.57874 60.7968 6.47492C60.8144 6.06075 60.8245 5.53582 60.8295 4.96033V0.00239563H56.8968C56.8993 1.6422 56.9068 3.48427 56.8943 5.1024Z" fill="white"/>
</g>
<defs>
<clipPath id="clip0_315_114">
<rect width="92" height="17" fill="white"/>
</clipPath>
</defs>
</svg>
